<?xml version="1.0" encoding="utf-8"?>
<!-- Svg Vector Icons : http://www.onlinewebfonts.com/icon -->
<!DOCTYPE svg PUBLIC "-//W3C//DTD SVG 1.1//EN" "http://www.w3.org/Graphics/SVG/1.1/DTD/svg11.dtd">
<svg version="1.1" xmlns="http://www.w3.org/2000/svg" xmlns:xlink="http://www.w3.org/1999/xlink" x="0px" y="0px" viewBox="0 0 1000 1000" enable-background="new 0 0 1000 1000" xml:space="preserve">
<metadata> Svg Vector Icons : http://www.onlinewebfonts.com/icon </metadata>
<g><g><g><g><path d="M964.8,831.4h-47.5c-13.9,0-25.2,11.3-25.2,25.2v35.6h-35.6c-13.9,0-25.2,11.3-25.2,25.2v47.5c0,13.9,11.3,25.2,25.2,25.2h108.2c13.9,0,25.2-11.3,25.2-25.2V856.6C990,842.7,978.7,831.4,964.8,831.4z"/><path d="M430.5,892.1H282.4c-13.9,0-25.2,11.3-25.2,25.2v47.5c0,13.9,11.3,25.2,25.2,25.2h148.2c13.9,0,25.2-11.3,25.2-25.2v-47.5C455.7,903.4,444.4,892.1,430.5,892.1z"/><path d="M717.6,892.1H569.5c-13.9,0-25.2,11.3-25.2,25.2v47.5c0,13.9,11.3,25.2,25.2,25.2h148.2c13.9,0,25.2-11.3,25.2-25.2v-47.5C742.8,903.4,731.5,892.1,717.6,892.1z"/><path d="M143.4,892.1h-35.6v-35.6c0-13.9-11.3-25.2-25.2-25.2H35.2c-13.9,0-25.2,11.3-25.2,25.2v108.2c0,13.9,11.3,25.2,25.2,25.2h108.2c13.9,0,25.2-11.3,25.2-25.2v-47.5C168.6,903.4,157.3,892.1,143.4,892.1z"/><path d="M35.2,742.8h47.5c13.9,0,25.2-11.3,25.2-25.2V569.5c0-13.9-11.3-25.2-25.2-25.2H35.2c-13.9,0-25.2,11.3-25.2,25.2v148.2C10,731.5,21.3,742.8,35.2,742.8z"/><path d="M35.2,455.7h47.5c13.9,0,25.2-11.3,25.2-25.2V282.4c0-13.9-11.3-25.2-25.2-25.2H35.2c-13.9,0-25.2,11.3-25.2,25.2v148.2C10,444.4,21.3,455.7,35.2,455.7z"/><path d="M143.4,10H35.2C21.3,10,10,21.3,10,35.2v108.2c0,13.9,11.3,25.2,25.2,25.2h47.5c13.9,0,25.2-11.3,25.2-25.2v-35.6h35.6c13.9,0,25.2-11.3,25.2-25.2V35.2C168.6,21.3,157.3,10,143.4,10z"/><path d="M717.6,10H569.5c-13.9,0-25.2,11.3-25.2,25.2v47.5c0,13.9,11.3,25.2,25.2,25.2h148.2c13.9,0,25.2-11.3,25.2-25.2V35.2C742.8,21.3,731.5,10,717.6,10z"/><path d="M282.4,107.9h148.2c13.9,0,25.2-11.3,25.2-25.2V35.2c0-13.9-11.3-25.2-25.2-25.2H282.4c-13.9,0-25.2,11.3-25.2,25.2v47.5C257.2,96.6,268.5,107.9,282.4,107.9z"/><path d="M964.8,10H856.6c-13.9,0-25.2,11.3-25.2,25.2v47.5c0,13.9,11.3,25.2,25.2,25.2h35.6v35.6c0,13.9,11.3,25.2,25.2,25.2h47.5c13.9,0,25.2-11.3,25.2-25.2V35.2C990,21.3,978.7,10,964.8,10z"/><path d="M964.8,544.3h-47.5c-13.9,0-25.2,11.3-25.2,25.2v148.2c0,13.9,11.3,25.2,25.2,25.2h47.5c13.9,0,25.2-11.3,25.2-25.2V569.5C990,555.6,978.7,544.3,964.8,544.3z"/><path d="M964.8,257.2h-47.5c-13.9,0-25.2,11.3-25.2,25.2v148.2c0,13.9,11.3,25.2,25.2,25.2h47.5c13.9,0,25.2-11.3,25.2-25.2V282.4C990,268.5,978.7,257.2,964.8,257.2z"/></g></g></g><g></g><g></g><g></g><g></g><g></g><g></g><g></g><g></g><g></g><g></g><g></g><g></g><g></g><g></g><g></g></g>
</svg>