<?xml version="1.0" encoding="iso-8859-1"?>
<!-- Generator: Adobe Illustrator 18.0.0, SVG Export Plug-In . SVG Version: 6.00 Build 0)  -->
<!DOCTYPE svg PUBLIC "-//W3C//DTD SVG 1.1//EN" "http://www.w3.org/Graphics/SVG/1.1/DTD/svg11.dtd">
<svg version="1.1" id="Capa_1" xmlns="http://www.w3.org/2000/svg" xmlns:xlink="http://www.w3.org/1999/xlink" x="0px" y="0px"
	 viewBox="0 0 60 60" style="enable-background:new 0 0 60 60;" xml:space="preserve">
<g>
	<path d="M26,0v4v2v2h2h4h2V6V4V0H26z M28,6V2h4v4H28z"/>
	<path d="M52,0v4v2v2h3v1c0,0.552,0.448,1,1,1s1-0.448,1-1V8h3V0H52z M58,6h-4V4V2h4V6z"/>
	<path d="M17,55h-2c-0.552,0-1,0.448-1,1s0.448,1,1,1h2c0.552,0,1-0.448,1-1S17.552,55,17,55z"/>
	<path d="M19,3h-2c-0.552,0-1,0.448-1,1s0.448,1,1,1h2c0.552,0,1-0.448,1-1S19.552,3,19,3z"/>
	<path d="M23,55h-2c-0.552,0-1,0.448-1,1s0.448,1,1,1h2c0.552,0,1-0.448,1-1S23.552,55,23,55z"/>
	<path d="M4,42c-0.552,0-1,0.448-1,1v2c0,0.552,0.448,1,1,1s1-0.448,1-1v-2C5,42.448,4.552,42,4,42z"/>
	<path d="M5,13c0-0.552-0.448-1-1-1s-1,0.448-1,1v2c0,0.552,0.448,1,1,1s1-0.448,1-1V13z"/>
	<path d="M11,55H9c-0.552,0-1,0.448-1,1s0.448,1,1,1h2c0.552,0,1-0.448,1-1S11.552,55,11,55z"/>
	<path d="M4,18c-0.552,0-1,0.448-1,1v2c0,0.552,0.448,1,1,1s1-0.448,1-1v-2C5,18.448,4.552,18,4,18z"/>
	<path d="M3,9c0,0.552,0.448,1,1,1s1-0.448,1-1V8h3V6V4V0H0v8h3V9z M2,2h4v2v2H2V2z"/>
	<path d="M5,37c0-0.552-0.448-1-1-1s-1,0.448-1,1v2c0,0.552,0.448,1,1,1s1-0.448,1-1V37z"/>
	<path d="M5,51v-2c0-0.552-0.448-1-1-1s-1,0.448-1,1v2c0,0.552,0.448,1,1,1S5,51.552,5,51z"/>
	<path d="M13,3h-2c-0.552,0-1,0.448-1,1s0.448,1,1,1h2c0.552,0,1-0.448,1-1S13.552,3,13,3z"/>
	<path d="M56,44c0.552,0,1-0.448,1-1v-2c0-0.552-0.448-1-1-1s-1,0.448-1,1v2C55,43.552,55.448,44,56,44z"/>
	<path d="M55,49c0,0.552,0.448,1,1,1s1-0.448,1-1v-2c0-0.552-0.448-1-1-1s-1,0.448-1,1V49z"/>
	<path d="M55,35v2c0,0.552,0.448,1,1,1s1-0.448,1-1v-2c0-0.552-0.448-1-1-1S55,34.448,55,35z"/>
	<path d="M57,25c0-0.552-0.448-1-1-1s-1,0.448-1,1v1h-1h-2v2v4v2h2h2h4v-8h-3V25z M58,32h-4v-4h4V32z"/>
	<path d="M56,16c0.552,0,1-0.448,1-1v-2c0-0.552-0.448-1-1-1s-1,0.448-1,1v2C55,15.552,55.448,16,56,16z"/>
	<path d="M35,55h-1v-3h-2h-2h-4v2v2v4h8v-3h1c0.552,0,1-0.448,1-1S35.552,55,35,55z M32,58h-4v-2v-2h2h2V58z"/>
	<path d="M49,3h-2c-0.552,0-1,0.448-1,1s0.448,1,1,1h2c0.552,0,1-0.448,1-1S49.552,3,49,3z"/>
	<path d="M55,21c0,0.552,0.448,1,1,1s1-0.448,1-1v-2c0-0.552-0.448-1-1-1s-1,0.448-1,1V21z"/>
	<path d="M37,3h-2c-0.552,0-1,0.448-1,1s0.448,1,1,1h2c0.552,0,1-0.448,1-1S37.552,3,37,3z"/>
	<path d="M25,3h-2c-0.552,0-1,0.448-1,1s0.448,1,1,1h2c0.552,0,1-0.448,1-1S25.552,3,25,3z"/>
	<path d="M43,3h-2c-0.552,0-1,0.448-1,1s0.448,1,1,1h2c0.552,0,1-0.448,1-1S43.552,3,43,3z"/>
	<path d="M41,55h-2c-0.552,0-1,0.448-1,1s0.448,1,1,1h2c0.552,0,1-0.448,1-1S41.552,55,41,55z"/>
	<path d="M47,55h-2c-0.552,0-1,0.448-1,1s0.448,1,1,1h2c0.552,0,1-0.448,1-1S47.552,55,47,55z"/>
	<path d="M6,34h2v-4v-2v-2H5v-1c0-0.552-0.448-1-1-1s-1,0.448-1,1v1H0v8h4H6z M2,28h4v2v2H4H2V28z"/>
	<path d="M8,52H6H4H0v8h8v-4v-2V52z M6,58H2v-4h4V58z"/>
	<path d="M54,52h-2v3h-1c-0.552,0-1,0.448-1,1s0.448,1,1,1h1v3h8v-8h-4H54z M58,58h-4v-4h2h2V58z"/>
</g>
<g>
</g>
<g>
</g>
<g>
</g>
<g>
</g>
<g>
</g>
<g>
</g>
<g>
</g>
<g>
</g>
<g>
</g>
<g>
</g>
<g>
</g>
<g>
</g>
<g>
</g>
<g>
</g>
<g>
</g>
</svg>
