<svg xmlns="http://www.w3.org/2000/svg" width="41" height="32" viewBox="0 0 41 32"><defs><mask id="sypdb" width="2.11" height="2.07" x="-1.05" y="-1.04"><path fill="#fff" d="M0-1h21v30H0z"/><path d="M9.093 1.05l-7.537 9.564c-.974.944-.284 2.557 1.092 2.557h4.72v13.196c0 .827.692 1.498 1.545 1.498h2.544c.853 0 1.545-.67 1.545-1.498V13.171h4.72c1.376 0 2.066-1.613 1.092-2.557L11.277 1.05a1.58 1.58 0 0 0-2.184 0z"/></mask><filter id="sypda" width="41.2" height="53" x="-10" y="-11" filterUnits="userSpaceOnUse"><feOffset dx=".2" dy="3" in="SourceGraphic" result="FeOffset1171Out"/><feGaussianBlur in="FeOffset1171Out" result="FeGaussianBlur1172Out" stdDeviation="0 0"/></filter><mask id="sypdd" width="2.11" height="2.07" x="-1.05" y="-1.04"><path fill="#fff" d="M20-1h21v30H20z"/><path d="M31.912 27.426l7.548-9.566c.975-.943.284-2.557-1.094-2.557h-4.727V2.108c0-.827-.693-1.498-1.547-1.498h-2.548c-.854 0-1.547.67-1.547 1.498v13.195H23.27c-1.378 0-2.068 1.614-1.094 2.557l7.548 9.566a1.583 1.583 0 0 0 2.188 0z"/></mask><filter id="sypdc" width="41.2" height="53" x="10" y="-11" filterUnits="userSpaceOnUse"><feOffset dx=".2" dy="3" in="SourceGraphic" result="FeOffset1187Out"/><feGaussianBlur in="FeOffset1187Out" result="FeGaussianBlur1188Out" stdDeviation="0 0"/></filter></defs><g><g><g filter="url(#sypda)"><path fill="none" stroke="#000" stroke-opacity=".33" stroke-width="2" d="M9.093 1.05l-7.537 9.564c-.974.944-.284 2.557 1.092 2.557h4.72v13.196c0 .827.692 1.498 1.545 1.498h2.544c.853 0 1.545-.67 1.545-1.498V13.171v0h4.72c1.376 0 2.066-1.613 1.092-2.557L11.277 1.05a1.58 1.58 0 0 0-2.184 0z" mask="url(&quot;#sypdb&quot;)"/><path fill-opacity=".33" d="M9.093 1.05l-7.537 9.564c-.974.944-.284 2.557 1.092 2.557h4.72v13.196c0 .827.692 1.498 1.545 1.498h2.544c.853 0 1.545-.67 1.545-1.498V13.171h4.72c1.376 0 2.066-1.613 1.092-2.557L11.277 1.05a1.58 1.58 0 0 0-2.184 0z"/></g><path fill="#fff" d="M9.093 1.05l-7.537 9.564c-.974.944-.284 2.557 1.092 2.557h4.72v13.196c0 .827.692 1.498 1.545 1.498h2.544c.853 0 1.545-.67 1.545-1.498V13.171h4.72c1.376 0 2.066-1.613 1.092-2.557L11.277 1.05a1.58 1.58 0 0 0-2.184 0z"/></g><g><g filter="url(#sypdc)"><path fill="none" stroke="#000" stroke-opacity=".33" stroke-width="2" d="M31.912 27.426l7.548-9.566c.975-.943.284-2.557-1.094-2.557h-4.727v0V2.108c0-.827-.693-1.498-1.547-1.498h-2.548c-.854 0-1.547.67-1.547 1.498v13.195H23.27c-1.378 0-2.068 1.614-1.094 2.557l7.548 9.566a1.583 1.583 0 0 0 2.188 0z" mask="url(&quot;#sypdd&quot;)"/><path fill-opacity=".33" d="M31.912 27.426l7.548-9.566c.975-.943.284-2.557-1.094-2.557h-4.727V2.108c0-.827-.693-1.498-1.547-1.498h-2.548c-.854 0-1.547.67-1.547 1.498v13.195H23.27c-1.378 0-2.068 1.614-1.094 2.557l7.548 9.566a1.583 1.583 0 0 0 2.188 0z"/></g><path fill="#fff" d="M31.912 27.426l7.548-9.566c.975-.943.284-2.557-1.094-2.557h-4.727V2.108c0-.827-.693-1.498-1.547-1.498h-2.548c-.854 0-1.547.67-1.547 1.498v13.195H23.27c-1.378 0-2.068 1.614-1.094 2.557l7.548 9.566a1.583 1.583 0 0 0 2.188 0z"/></g></g></svg>